<svg width="284" height="206" viewBox="0 0 284 206" fill="none" xmlns="http://www.w3.org/2000/svg">
<rect width="284" height="206" rx="15" fill="#F9F9F9"/>
<g filter="url(#filter0_d)">
<rect x="132" y="162" width="22" height="16" fill="white"/>
<rect x="132.5" y="162.5" width="21" height="15" stroke="white"/>
</g>
<g filter="url(#filter1_d)">
<rect x="30" y="26" width="224" height="136" rx="7.5" fill="white"/>
<rect x="30" y="26" width="224" height="136" rx="7.5" stroke="black" stroke-opacity="0.5"/>
</g>
<g filter="url(#filter2_i)">
<rect x="37" y="33" width="210" height="122" rx="5" fill="#68CAAD" fill-opacity="0.7"/>
</g>
<rect x="37.5" y="33.5" width="209" height="121" rx="4.5" stroke="#808080" stroke-opacity="0.75"/>
<g filter="url(#filter3_d)">
<rect x="114" y="178" width="58" height="5" fill="white"/>
</g>
<rect x="37" y="33" width="210" height="12.5" fill="#484747"/>
<circle cx="45" cy="39" r="4" fill="white" fill-opacity="0.9"/>
<circle cx="63" cy="39" r="4" fill="white" fill-opacity="0.9"/>
<circle cx="81" cy="39" r="4" fill="white" fill-opacity="0.9"/>
<path d="M57.6646 66.0771L61.2827 67.353V69.1304L55.8174 66.8135V65.3154L61.2827 62.9985V64.7759L57.6646 66.0771ZM64.5835 63.8809C65.0701 63.2969 65.6816 63.0049 66.418 63.0049C67.9076 63.0049 68.6629 63.8703 68.6841 65.6011V70H66.8496V65.6519C66.8496 65.2583 66.765 64.9684 66.5957 64.7822C66.4264 64.5918 66.145 64.4966 65.7515 64.4966C65.214 64.4966 64.8247 64.7039 64.5835 65.1187V70H62.749V60.25H64.5835V63.8809ZM72.2642 61.4434V63.1318H73.4385V64.4775H72.2642V67.9053C72.2642 68.1592 72.3128 68.3411 72.4102 68.4512C72.5075 68.5612 72.6937 68.6162 72.9688 68.6162C73.1719 68.6162 73.3517 68.6014 73.5083 68.5718V69.9619C73.1486 70.0719 72.7783 70.127 72.3975 70.127C71.111 70.127 70.4551 69.4774 70.4297 68.1782V64.4775H69.4268V63.1318H70.4297V61.4434H72.2642ZM76.1807 63.1318L76.2378 63.8999C76.7244 63.3032 77.3825 63.0049 78.2119 63.0049C79.0964 63.0049 79.7036 63.354 80.0337 64.0522C80.5161 63.354 81.2038 63.0049 82.0967 63.0049C82.8415 63.0049 83.3958 63.2228 83.7598 63.6587C84.1237 64.0903 84.3057 64.742 84.3057 65.6138V70H82.4648V65.6201C82.4648 65.2308 82.3887 64.9473 82.2363 64.7695C82.084 64.5876 81.8153 64.4966 81.4302 64.4966C80.88 64.4966 80.4992 64.759 80.2876 65.2837L80.2939 70H78.4595V65.6265C78.4595 65.2287 78.3812 64.9409 78.2246 64.7632C78.068 64.5854 77.8014 64.4966 77.4248 64.4966C76.9043 64.4966 76.5277 64.7124 76.2949 65.144V70H74.4604V63.1318H76.1807ZM87.6572 70H85.8164V60.25H87.6572V70ZM92.9194 66.0581L89.2314 64.7695V63.0049L94.7603 65.3218V66.8135L89.2314 69.1367V67.3657L92.9194 66.0581ZM70.6138 81.0771L74.2319 82.353V84.1304L68.7666 81.8135V80.3154L74.2319 77.9985V79.7759L70.6138 81.0771ZM77.5327 78.8809C78.0194 78.2969 78.6309 78.0049 79.3672 78.0049C80.8568 78.0049 81.6121 78.8703 81.6333 80.6011V85H79.7988V80.6519C79.7988 80.2583 79.7142 79.9684 79.5449 79.7822C79.3757 79.5918 79.0942 79.4966 78.7007 79.4966C78.1632 79.4966 77.7739 79.7039 77.5327 80.1187V85H75.6982V75.25H77.5327V78.8809ZM87.397 85H85.5625V77.9287L83.3726 78.6079V77.1162L87.2002 75.7451H87.397V85ZM94.2271 81.0581L90.5391 79.7695V78.0049L96.0679 80.3218V81.8135L90.5391 84.1367V82.3657L94.2271 81.0581ZM105.348 82.5752C105.348 82.2155 105.221 81.9404 104.967 81.75C104.713 81.5553 104.256 81.3522 103.596 81.1406C102.936 80.9248 102.413 80.7132 102.028 80.5059C100.979 79.9388 100.454 79.175 100.454 78.2144C100.454 77.715 100.594 77.2707 100.873 76.8813C101.157 76.4878 101.561 76.181 102.085 75.9609C102.614 75.7409 103.207 75.6309 103.863 75.6309C104.523 75.6309 105.111 75.7515 105.627 75.9927C106.144 76.2297 106.544 76.5661 106.827 77.002C107.115 77.4378 107.259 77.9329 107.259 78.4873H105.354C105.354 78.0641 105.221 77.7362 104.955 77.5034C104.688 77.2664 104.313 77.1479 103.831 77.1479C103.366 77.1479 103.004 77.2474 102.746 77.4463C102.487 77.641 102.358 77.8991 102.358 78.2207C102.358 78.5212 102.509 78.7729 102.809 78.9761C103.114 79.1792 103.56 79.3696 104.148 79.5474C105.232 79.8732 106.021 80.2773 106.516 80.7598C107.011 81.2422 107.259 81.8431 107.259 82.5625C107.259 83.3623 106.956 83.9907 106.351 84.4478C105.746 84.9006 104.931 85.127 103.907 85.127C103.196 85.127 102.549 84.9979 101.965 84.7397C101.381 84.4774 100.934 84.1198 100.625 83.667C100.321 83.2142 100.168 82.6895 100.168 82.0928H102.079C102.079 83.1126 102.688 83.6226 103.907 83.6226C104.36 83.6226 104.713 83.5316 104.967 83.3496C105.221 83.1634 105.348 82.9053 105.348 82.5752ZM110.928 82.2451L110.268 82.9053V85H108.433V75.25H110.268V80.6519L110.623 80.1948L112.381 78.1318H114.584L112.102 80.9946L114.8 85H112.692L110.928 82.2451ZM117.313 85H115.473V78.1318H117.313V85ZM115.365 76.3545C115.365 76.0794 115.456 75.853 115.638 75.6753C115.824 75.4976 116.076 75.4087 116.393 75.4087C116.706 75.4087 116.956 75.4976 117.142 75.6753C117.328 75.853 117.421 76.0794 117.421 76.3545C117.421 76.6338 117.326 76.8623 117.136 77.04C116.95 77.2178 116.702 77.3066 116.393 77.3066C116.084 77.3066 115.834 77.2178 115.644 77.04C115.458 76.8623 115.365 76.6338 115.365 76.3545ZM120.767 85H118.926V75.25H120.767V85ZM124.22 85H122.379V75.25H124.22V85ZM129.457 83.1021C129.457 82.8778 129.344 82.7021 129.12 82.5752C128.9 82.444 128.545 82.3276 128.054 82.2261C126.42 81.8833 125.604 81.1893 125.604 80.144C125.604 79.5347 125.855 79.0269 126.359 78.6206C126.867 78.2101 127.529 78.0049 128.346 78.0049C129.217 78.0049 129.914 78.2101 130.434 78.6206C130.959 79.0311 131.221 79.5643 131.221 80.2202H129.387C129.387 79.9578 129.302 79.742 129.133 79.5728C128.964 79.3993 128.699 79.3125 128.339 79.3125C128.03 79.3125 127.791 79.3823 127.622 79.522C127.453 79.6616 127.368 79.8394 127.368 80.0552C127.368 80.2583 127.463 80.4233 127.654 80.5503C127.848 80.673 128.174 80.7809 128.631 80.874C129.088 80.9629 129.473 81.0645 129.787 81.1787C130.756 81.5342 131.24 82.1499 131.24 83.0259C131.24 83.6522 130.972 84.16 130.434 84.5493C129.897 84.9344 129.203 85.127 128.352 85.127C127.777 85.127 127.264 85.0254 126.816 84.8223C126.372 84.6149 126.022 84.3335 125.769 83.978C125.515 83.6183 125.388 83.2311 125.388 82.8164H127.127C127.144 83.1423 127.264 83.3919 127.489 83.5654C127.713 83.7389 128.014 83.8257 128.39 83.8257C128.741 83.8257 129.006 83.7601 129.184 83.6289C129.366 83.4935 129.457 83.3179 129.457 83.1021ZM135.411 82.5117C135.411 82.0843 135.529 81.6886 135.766 81.3247C136.007 80.9608 136.447 80.5566 137.086 80.1123C136.811 79.7441 136.596 79.3993 136.439 79.0776C136.282 78.7518 136.204 78.4132 136.204 78.062C136.204 77.3426 136.431 76.7586 136.883 76.3101C137.34 75.8573 137.954 75.6309 138.724 75.6309C139.414 75.6309 139.979 75.8361 140.419 76.2466C140.863 76.6571 141.085 77.1691 141.085 77.7827C141.085 78.519 140.713 79.1686 139.968 79.7314L139.257 80.2456L140.851 82.0991C141.1 81.6082 141.225 81.0666 141.225 80.4741H142.787C142.787 81.6759 142.509 82.6493 141.955 83.394L143.339 85H141.257L140.781 84.4541C140.099 84.9027 139.317 85.127 138.432 85.127C137.518 85.127 136.786 84.8879 136.236 84.4097C135.686 83.9272 135.411 83.2946 135.411 82.5117ZM138.521 83.6543C138.961 83.6543 139.378 83.5316 139.771 83.2861L137.95 81.1787L137.816 81.2739C137.44 81.5955 137.251 81.9743 137.251 82.4102C137.251 82.7783 137.368 83.0788 137.601 83.3115C137.838 83.54 138.144 83.6543 138.521 83.6543ZM137.848 78.0366C137.848 78.354 138.034 78.7539 138.407 79.2363L138.896 78.9126C139.145 78.7518 139.317 78.5952 139.41 78.4429C139.507 78.2905 139.556 78.1086 139.556 77.897C139.556 77.6854 139.477 77.5013 139.321 77.3447C139.164 77.1882 138.963 77.1099 138.718 77.1099C138.455 77.1099 138.244 77.1945 138.083 77.3638C137.926 77.533 137.848 77.7573 137.848 78.0366ZM154.13 77.3003H151.299V85H149.395V77.3003H146.602V75.7578H154.13V77.3003ZM153.495 81.5024C153.495 80.8211 153.626 80.2139 153.889 79.6807C154.151 79.1475 154.528 78.7349 155.019 78.4429C155.514 78.1509 156.087 78.0049 156.739 78.0049C157.666 78.0049 158.421 78.2884 159.005 78.8555C159.593 79.4225 159.921 80.1927 159.989 81.166L160.001 81.6357C160.001 82.6895 159.707 83.5358 159.119 84.1748C158.531 84.8096 157.742 85.127 156.751 85.127C155.761 85.127 154.97 84.8096 154.377 84.1748C153.789 83.54 153.495 82.6768 153.495 81.585V81.5024ZM155.33 81.6357C155.33 82.2874 155.452 82.7868 155.698 83.1338C155.943 83.4766 156.294 83.6479 156.751 83.6479C157.196 83.6479 157.543 83.4787 157.792 83.1401C158.042 82.7974 158.167 82.2515 158.167 81.5024C158.167 80.8634 158.042 80.3683 157.792 80.0171C157.543 79.6659 157.192 79.4902 156.739 79.4902C156.29 79.4902 155.943 79.6659 155.698 80.0171C155.452 80.3641 155.33 80.9036 155.33 81.6357ZM160.846 81.5024C160.846 80.8211 160.977 80.2139 161.239 79.6807C161.502 79.1475 161.878 78.7349 162.369 78.4429C162.864 78.1509 163.438 78.0049 164.089 78.0049C165.016 78.0049 165.771 78.2884 166.355 78.8555C166.944 79.4225 167.272 80.1927 167.339 81.166L167.352 81.6357C167.352 82.6895 167.058 83.5358 166.47 84.1748C165.882 84.8096 165.092 85.127 164.102 85.127C163.112 85.127 162.32 84.8096 161.728 84.1748C161.14 83.54 160.846 82.6768 160.846 81.585V81.5024ZM162.68 81.6357C162.68 82.2874 162.803 82.7868 163.048 83.1338C163.294 83.4766 163.645 83.6479 164.102 83.6479C164.546 83.6479 164.893 83.4787 165.143 83.1401C165.393 82.7974 165.518 82.2515 165.518 81.5024C165.518 80.8634 165.393 80.3683 165.143 80.0171C164.893 79.6659 164.542 79.4902 164.089 79.4902C163.641 79.4902 163.294 79.6659 163.048 80.0171C162.803 80.3641 162.68 80.9036 162.68 81.6357ZM170.418 85H168.577V75.25H170.418V85ZM175.655 83.1021C175.655 82.8778 175.543 82.7021 175.318 82.5752C175.098 82.444 174.743 82.3276 174.252 82.2261C172.618 81.8833 171.802 81.1893 171.802 80.144C171.802 79.5347 172.054 79.0269 172.557 78.6206C173.065 78.2101 173.727 78.0049 174.544 78.0049C175.416 78.0049 176.112 78.2101 176.632 78.6206C177.157 79.0311 177.419 79.5643 177.419 80.2202H175.585C175.585 79.9578 175.5 79.742 175.331 79.5728C175.162 79.3993 174.897 79.3125 174.538 79.3125C174.229 79.3125 173.99 79.3823 173.82 79.522C173.651 79.6616 173.566 79.8394 173.566 80.0552C173.566 80.2583 173.662 80.4233 173.852 80.5503C174.047 80.673 174.373 80.7809 174.83 80.874C175.287 80.9629 175.672 81.0645 175.985 81.1787C176.954 81.5342 177.438 82.1499 177.438 83.0259C177.438 83.6522 177.17 84.16 176.632 84.5493C176.095 84.9344 175.401 85.127 174.55 85.127C173.975 85.127 173.463 85.0254 173.014 84.8223C172.57 84.6149 172.221 84.3335 171.967 83.978C171.713 83.6183 171.586 83.2311 171.586 82.8164H173.325C173.342 83.1423 173.463 83.3919 173.687 83.5654C173.911 83.7389 174.212 83.8257 174.588 83.8257C174.94 83.8257 175.204 83.7601 175.382 83.6289C175.564 83.4935 175.655 83.3179 175.655 83.1021ZM183.348 81.0771L186.966 82.353V84.1304L181.501 81.8135V80.3154L186.966 77.9985V79.7759L183.348 81.0771ZM189.055 85.7935H187.69L191.092 75.7578H192.457L189.055 85.7935ZM195.129 78.8809C195.616 78.2969 196.228 78.0049 196.964 78.0049C198.453 78.0049 199.209 78.8703 199.23 80.6011V85H197.396V80.6519C197.396 80.2583 197.311 79.9684 197.142 79.7822C196.972 79.5918 196.691 79.4966 196.297 79.4966C195.76 79.4966 195.371 79.7039 195.129 80.1187V85H193.295V75.25H195.129V78.8809ZM204.994 85H203.159V77.9287L200.969 78.6079V77.1162L204.797 75.7451H204.994V85ZM211.824 81.0581L208.136 79.7695V78.0049L213.665 80.3218V81.8135L208.136 84.1367V82.3657L211.824 81.0581ZM83.563 96.0771L87.1812 97.353V99.1304L81.7158 96.8135V95.3154L87.1812 92.9985V94.7759L83.563 96.0771ZM94.8745 96.6294C94.8745 97.6873 94.6333 98.5358 94.1509 99.1748C93.6727 99.8096 93.0252 100.127 92.2085 100.127C91.5145 100.127 90.9538 99.8857 90.5264 99.4033V102.641H88.6919V93.1318H90.3931L90.4565 93.8047C90.9009 93.2715 91.4806 93.0049 92.1958 93.0049C93.0422 93.0049 93.7002 93.318 94.1699 93.9443C94.6396 94.5706 94.8745 95.4339 94.8745 96.5342V96.6294ZM93.04 96.4961C93.04 95.8571 92.9258 95.3641 92.6973 95.0171C92.473 94.6701 92.145 94.4966 91.7134 94.4966C91.1379 94.4966 90.7422 94.7166 90.5264 95.1567V97.9688C90.7507 98.4215 91.1506 98.6479 91.7261 98.6479C92.6021 98.6479 93.04 97.9307 93.04 96.4961ZM99.7622 96.0581L96.0742 94.7695V93.0049L101.603 95.3218V96.8135L96.0742 99.1367V97.3657L99.7622 96.0581ZM108.116 100H106.211V90.7578H108.116V100ZM110.293 93.5952L109.43 93.0938C109.794 92.5225 109.982 91.9321 109.995 91.3228V90.25H111.455V91.2339C111.455 91.6147 111.349 92.0273 111.137 92.4717C110.926 92.916 110.644 93.2905 110.293 93.5952ZM115.32 97.7593L116.596 93.1318H118.513L116.196 100H114.444L112.127 93.1318H114.044L115.32 97.7593ZM122.398 100.127C121.391 100.127 120.57 99.818 119.935 99.2002C119.305 98.5824 118.989 97.7593 118.989 96.731V96.5532C118.989 95.8634 119.123 95.2477 119.389 94.7061C119.656 94.1602 120.032 93.7412 120.519 93.4492C121.01 93.153 121.569 93.0049 122.195 93.0049C123.134 93.0049 123.873 93.3011 124.41 93.8936C124.952 94.486 125.223 95.326 125.223 96.4136V97.1626H120.849C120.908 97.6112 121.086 97.9709 121.382 98.2417C121.683 98.5125 122.062 98.6479 122.519 98.6479C123.225 98.6479 123.778 98.3919 124.175 97.8799L125.077 98.8892C124.802 99.2785 124.429 99.5832 123.959 99.8032C123.49 100.019 122.969 100.127 122.398 100.127ZM122.188 94.4902C121.825 94.4902 121.528 94.613 121.3 94.8584C121.076 95.1038 120.932 95.4551 120.868 95.9121H123.42V95.7661C123.411 95.3599 123.301 95.0467 123.09 94.8267C122.878 94.6024 122.578 94.4902 122.188 94.4902ZM135.696 96.6294C135.696 97.7297 135.461 98.5887 134.992 99.2065C134.522 99.8201 133.866 100.127 133.024 100.127C132.279 100.127 131.685 99.8413 131.24 99.27L131.158 100H129.507V90.25H131.342V93.7476C131.765 93.2524 132.321 93.0049 133.011 93.0049C133.849 93.0049 134.505 93.3138 134.979 93.9316C135.457 94.5452 135.696 95.4106 135.696 96.5278V96.6294ZM133.862 96.4961C133.862 95.8021 133.752 95.2964 133.532 94.979C133.312 94.6574 132.984 94.4966 132.548 94.4966C131.964 94.4966 131.562 94.7357 131.342 95.2139V97.9243C131.566 98.4067 131.972 98.6479 132.561 98.6479C133.153 98.6479 133.542 98.356 133.729 97.772C133.817 97.4927 133.862 97.0674 133.862 96.4961ZM139.994 100.127C138.986 100.127 138.166 99.818 137.531 99.2002C136.9 98.5824 136.585 97.7593 136.585 96.731V96.5532C136.585 95.8634 136.718 95.2477 136.985 94.7061C137.251 94.1602 137.628 93.7412 138.115 93.4492C138.606 93.153 139.164 93.0049 139.791 93.0049C140.73 93.0049 141.468 93.3011 142.006 93.8936C142.548 94.486 142.818 95.326 142.818 96.4136V97.1626H138.445C138.504 97.6112 138.682 97.9709 138.978 98.2417C139.278 98.5125 139.657 98.6479 140.114 98.6479C140.821 98.6479 141.373 98.3919 141.771 97.8799L142.672 98.8892C142.397 99.2785 142.025 99.5832 141.555 99.8032C141.085 100.019 140.565 100.127 139.994 100.127ZM139.784 94.4902C139.42 94.4902 139.124 94.613 138.896 94.8584C138.671 95.1038 138.527 95.4551 138.464 95.9121H141.016V95.7661C141.007 95.3599 140.897 95.0467 140.686 94.8267C140.474 94.6024 140.174 94.4902 139.784 94.4902ZM147.027 100.127C146.02 100.127 145.199 99.818 144.564 99.2002C143.933 98.5824 143.618 97.7593 143.618 96.731V96.5532C143.618 95.8634 143.751 95.2477 144.018 94.7061C144.285 94.1602 144.661 93.7412 145.148 93.4492C145.639 93.153 146.197 93.0049 146.824 93.0049C147.763 93.0049 148.502 93.3011 149.039 93.8936C149.581 94.486 149.852 95.326 149.852 96.4136V97.1626H145.478C145.537 97.6112 145.715 97.9709 146.011 98.2417C146.312 98.5125 146.69 98.6479 147.147 98.6479C147.854 98.6479 148.406 98.3919 148.804 97.8799L149.706 98.8892C149.431 99.2785 149.058 99.5832 148.588 99.8032C148.119 100.019 147.598 100.127 147.027 100.127ZM146.817 94.4902C146.453 94.4902 146.157 94.613 145.929 94.8584C145.704 95.1038 145.561 95.4551 145.497 95.9121H148.049V95.7661C148.04 95.3599 147.93 95.0467 147.719 94.8267C147.507 94.6024 147.207 94.4902 146.817 94.4902ZM152.587 93.1318L152.645 93.9253C153.135 93.3117 153.793 93.0049 154.619 93.0049C155.347 93.0049 155.888 93.2186 156.244 93.646C156.599 94.0734 156.781 94.7124 156.79 95.563V100H154.955V95.6074C154.955 95.2181 154.87 94.9367 154.701 94.7632C154.532 94.5854 154.25 94.4966 153.857 94.4966C153.341 94.4966 152.953 94.7166 152.695 95.1567V100H150.861V93.1318H152.587ZM165.537 99.3018C165.084 99.8519 164.458 100.127 163.658 100.127C162.921 100.127 162.359 99.9154 161.969 99.4922C161.584 99.069 161.387 98.4491 161.379 97.6323V93.1318H163.213V97.5688C163.213 98.284 163.539 98.6416 164.191 98.6416C164.813 98.6416 165.24 98.4258 165.473 97.9941V93.1318H167.314V100H165.587L165.537 99.3018ZM172.417 98.1021C172.417 97.8778 172.305 97.7021 172.081 97.5752C171.861 97.444 171.506 97.3276 171.015 97.2261C169.381 96.8833 168.564 96.1893 168.564 95.144C168.564 94.5347 168.816 94.0269 169.32 93.6206C169.828 93.2101 170.49 93.0049 171.307 93.0049C172.178 93.0049 172.875 93.2101 173.395 93.6206C173.92 94.0311 174.182 94.5643 174.182 95.2202H172.348C172.348 94.9578 172.263 94.742 172.094 94.5728C171.924 94.3993 171.66 94.3125 171.3 94.3125C170.991 94.3125 170.752 94.3823 170.583 94.522C170.414 94.6616 170.329 94.8394 170.329 95.0552C170.329 95.2583 170.424 95.4233 170.615 95.5503C170.809 95.673 171.135 95.7809 171.592 95.874C172.049 95.9629 172.434 96.0645 172.748 96.1787C173.717 96.5342 174.201 97.1499 174.201 98.0259C174.201 98.6522 173.932 99.16 173.395 99.5493C172.858 99.9344 172.164 100.127 171.313 100.127C170.737 100.127 170.225 100.025 169.777 99.8223C169.333 99.6149 168.983 99.3335 168.729 98.978C168.476 98.6183 168.349 98.2311 168.349 97.8164H170.088C170.105 98.1423 170.225 98.3919 170.45 98.5654C170.674 98.7389 170.974 98.8257 171.351 98.8257C171.702 98.8257 171.967 98.7601 172.145 98.6289C172.326 98.4935 172.417 98.3179 172.417 98.1021ZM177.324 100H175.483V93.1318H177.324V100ZM175.375 91.3545C175.375 91.0794 175.466 90.853 175.648 90.6753C175.835 90.4976 176.086 90.4087 176.404 90.4087C176.717 90.4087 176.967 90.4976 177.153 90.6753C177.339 90.853 177.432 91.0794 177.432 91.3545C177.432 91.6338 177.337 91.8623 177.146 92.04C176.96 92.2178 176.713 92.3066 176.404 92.3066C176.095 92.3066 175.845 92.2178 175.655 92.04C175.469 91.8623 175.375 91.6338 175.375 91.3545ZM180.53 93.1318L180.587 93.9253C181.078 93.3117 181.736 93.0049 182.561 93.0049C183.289 93.0049 183.831 93.2186 184.186 93.646C184.542 94.0734 184.723 94.7124 184.732 95.563V100H182.897V95.6074C182.897 95.2181 182.813 94.9367 182.644 94.7632C182.474 94.5854 182.193 94.4966 181.799 94.4966C181.283 94.4966 180.896 94.7166 180.638 95.1567V100H178.803V93.1318H180.53ZM185.862 96.5151C185.862 95.4614 186.111 94.613 186.611 93.9697C187.114 93.3265 187.792 93.0049 188.642 93.0049C189.395 93.0049 189.981 93.263 190.4 93.7793L190.477 93.1318H192.14V99.7715C192.14 100.372 192.002 100.895 191.727 101.339C191.456 101.784 191.073 102.122 190.578 102.355C190.083 102.588 189.503 102.704 188.839 102.704C188.335 102.704 187.844 102.603 187.366 102.399C186.888 102.201 186.526 101.942 186.281 101.625L187.093 100.508C187.55 101.02 188.105 101.276 188.756 101.276C189.243 101.276 189.622 101.145 189.893 100.882C190.163 100.624 190.299 100.256 190.299 99.7778V99.4097C189.876 99.8879 189.319 100.127 188.629 100.127C187.804 100.127 187.136 99.8053 186.624 99.1621C186.116 98.5146 185.862 97.6577 185.862 96.5913V96.5151ZM187.696 96.6484C187.696 97.2705 187.821 97.7593 188.071 98.1147C188.32 98.466 188.663 98.6416 189.099 98.6416C189.658 98.6416 190.058 98.4321 190.299 98.0132V95.125C190.053 94.7061 189.658 94.4966 189.112 94.4966C188.672 94.4966 188.325 94.6764 188.071 95.0361C187.821 95.3958 187.696 95.9333 187.696 96.6484ZM195.421 97.1626H193.898L193.682 90.7578H195.637L195.421 97.1626ZM194.66 98.1655C194.969 98.1655 195.216 98.2565 195.402 98.4385C195.593 98.6204 195.688 98.8532 195.688 99.1367C195.688 99.416 195.593 99.6466 195.402 99.8286C195.216 100.011 194.969 100.102 194.66 100.102C194.355 100.102 194.107 100.011 193.917 99.8286C193.731 99.6466 193.638 99.416 193.638 99.1367C193.638 98.8574 193.731 98.6268 193.917 98.4448C194.107 98.2586 194.355 98.1655 194.66 98.1655ZM198.963 97.1626H197.44L197.224 90.7578H199.179L198.963 97.1626ZM198.202 98.1655C198.511 98.1655 198.758 98.2565 198.944 98.4385C199.135 98.6204 199.23 98.8532 199.23 99.1367C199.23 99.416 199.135 99.6466 198.944 99.8286C198.758 100.011 198.511 100.102 198.202 100.102C197.897 100.102 197.649 100.011 197.459 99.8286C197.273 99.6466 197.18 99.416 197.18 99.1367C197.18 98.8574 197.273 98.6268 197.459 98.4448C197.649 98.2586 197.897 98.1655 198.202 98.1655ZM205.362 96.0771L208.98 97.353V99.1304L203.515 96.8135V95.3154L208.98 92.9985V94.7759L205.362 96.0771ZM211.068 100.793H209.704L213.106 90.7578H214.471L211.068 100.793ZM221.536 96.6294C221.536 97.6873 221.294 98.5358 220.812 99.1748C220.334 99.8096 219.686 100.127 218.87 100.127C218.176 100.127 217.615 99.8857 217.188 99.4033V102.641H215.353V93.1318H217.054L217.118 93.8047C217.562 93.2715 218.142 93.0049 218.857 93.0049C219.703 93.0049 220.361 93.318 220.831 93.9443C221.301 94.5706 221.536 95.4339 221.536 96.5342V96.6294ZM219.701 96.4961C219.701 95.8571 219.587 95.3641 219.358 95.0171C219.134 94.6701 218.806 94.4966 218.375 94.4966C217.799 94.4966 217.403 94.7166 217.188 95.1567V97.9688C217.412 98.4215 217.812 98.6479 218.387 98.6479C219.263 98.6479 219.701 97.9307 219.701 96.4961ZM226.423 96.0581L222.735 94.7695V93.0049L228.264 95.3218V96.8135L222.735 99.1367V97.3657L226.423 96.0581ZM60.9019 111.077L64.52 112.353V114.13L59.0547 111.813V110.315L64.52 107.999V109.776L60.9019 111.077ZM66.6084 115.793H65.2437L68.646 105.758H70.0107L66.6084 115.793ZM72.6831 108.881C73.1698 108.297 73.7812 108.005 74.5176 108.005C76.0072 108.005 76.7625 108.87 76.7837 110.601V115H74.9492V110.652C74.9492 110.258 74.8646 109.968 74.6953 109.782C74.526 109.592 74.2446 109.497 73.8511 109.497C73.3136 109.497 72.9243 109.704 72.6831 110.119V115H70.8486V105.25H72.6831V108.881ZM80.3638 106.443V108.132H81.5381V109.478H80.3638V112.905C80.3638 113.159 80.4124 113.341 80.5098 113.451C80.6071 113.561 80.7933 113.616 81.0684 113.616C81.2715 113.616 81.4513 113.601 81.6079 113.572V114.962C81.2482 115.072 80.8779 115.127 80.4971 115.127C79.2106 115.127 78.5547 114.477 78.5293 113.178V109.478H77.5264V108.132H78.5293V106.443H80.3638ZM84.2803 108.132L84.3374 108.9C84.8241 108.303 85.4821 108.005 86.3115 108.005C87.196 108.005 87.8032 108.354 88.1333 109.052C88.6157 108.354 89.3034 108.005 90.1963 108.005C90.9411 108.005 91.4954 108.223 91.8594 108.659C92.2233 109.09 92.4053 109.742 92.4053 110.614V115H90.5645V110.62C90.5645 110.231 90.4883 109.947 90.3359 109.77C90.1836 109.588 89.9149 109.497 89.5298 109.497C88.9797 109.497 88.5988 109.759 88.3872 110.284L88.3936 115H86.5591V110.626C86.5591 110.229 86.4808 109.941 86.3242 109.763C86.1676 109.585 85.901 109.497 85.5244 109.497C85.0039 109.497 84.6273 109.712 84.3945 110.144V115H82.5601V108.132H84.2803ZM95.7568 115H93.916V105.25H95.7568V115ZM101.019 111.058L97.3311 109.77V108.005L102.86 110.322V111.813L97.3311 114.137V112.366L101.019 111.058Z" fill="white"/>
<defs>
<filter id="filter0_d" x="128" y="162" width="30" height="24" filterUnits="userSpaceOnUse" color-interpolation-filters="sRGB">
<feFlood flood-opacity="0" result="BackgroundImageFix"/>
<feColorMatrix in="SourceAlpha" type="matrix" values="0 0 0 0 0 0 0 0 0 0 0 0 0 0 0 0 0 0 127 0"/>
<feOffset dy="4"/>
<feGaussianBlur stdDeviation="2"/>
<feColorMatrix type="matrix" values="0 0 0 0 0 0 0 0 0 0 0 0 0 0 0 0 0 0 0.25 0"/>
<feBlend mode="normal" in2="BackgroundImageFix" result="effect1_dropShadow"/>
<feBlend mode="normal" in="SourceGraphic" in2="effect1_dropShadow" result="shape"/>
</filter>
<filter id="filter1_d" x="25.5" y="25.5" width="233" height="148" filterUnits="userSpaceOnUse" color-interpolation-filters="sRGB">
<feFlood flood-opacity="0" result="BackgroundImageFix"/>
<feColorMatrix in="SourceAlpha" type="matrix" values="0 0 0 0 0 0 0 0 0 0 0 0 0 0 0 0 0 0 127 0"/>
<feOffset dy="7"/>
<feGaussianBlur stdDeviation="2"/>
<feColorMatrix type="matrix" values="0 0 0 0 0 0 0 0 0 0 0 0 0 0 0 0 0 0 0.25 0"/>
<feBlend mode="normal" in2="BackgroundImageFix" result="effect1_dropShadow"/>
<feBlend mode="normal" in="SourceGraphic" in2="effect1_dropShadow" result="shape"/>
</filter>
<filter id="filter2_i" x="37" y="33" width="210" height="126" filterUnits="userSpaceOnUse" color-interpolation-filters="sRGB">
<feFlood flood-opacity="0" result="BackgroundImageFix"/>
<feBlend mode="normal" in="SourceGraphic" in2="BackgroundImageFix" result="shape"/>
<feColorMatrix in="SourceAlpha" type="matrix" values="0 0 0 0 0 0 0 0 0 0 0 0 0 0 0 0 0 0 127 0" result="hardAlpha"/>
<feOffset dy="4"/>
<feGaussianBlur stdDeviation="2"/>
<feComposite in2="hardAlpha" operator="arithmetic" k2="-1" k3="1"/>
<feColorMatrix type="matrix" values="0 0 0 0 0 0 0 0 0 0 0 0 0 0 0 0 0 0 0.25 0"/>
<feBlend mode="normal" in2="shape" result="effect1_innerShadow"/>
</filter>
<filter id="filter3_d" x="110" y="178" width="66" height="13" filterUnits="userSpaceOnUse" color-interpolation-filters="sRGB">
<feFlood flood-opacity="0" result="BackgroundImageFix"/>
<feColorMatrix in="SourceAlpha" type="matrix" values="0 0 0 0 0 0 0 0 0 0 0 0 0 0 0 0 0 0 127 0"/>
<feOffset dy="4"/>
<feGaussianBlur stdDeviation="2"/>
<feColorMatrix type="matrix" values="0 0 0 0 0 0 0 0 0 0 0 0 0 0 0 0 0 0 0.25 0"/>
<feBlend mode="normal" in2="BackgroundImageFix" result="effect1_dropShadow"/>
<feBlend mode="normal" in="SourceGraphic" in2="effect1_dropShadow" result="shape"/>
</filter>
</defs>
</svg>
