<svg width="160" height="160" viewBox="0 0 160 160" fill="none" xmlns="http://www.w3.org/2000/svg">
<g clip-path="url(#clip0)" filter="url(#filter0_i)">
<path d="M156.032 65.1174L141.754 63.4023C140.294 57.9561 138.157 52.8107 135.405 48.0365L144.282 36.7537C145.638 35.0194 145.485 32.3379 143.917 30.7764L129.203 16.057C127.654 14.5018 124.966 14.3354 123.226 15.6922L111.923 24.5814C107.168 21.8295 102.022 19.692 96.5888 18.2457L94.88 3.96784C94.6176 1.78553 92.6016 0 90.4 0H69.5872C67.3856 0 65.3696 1.78553 65.1136 3.96784L63.3984 18.2457C57.9584 19.6984 52.8064 21.8423 48.0512 24.5878L36.7552 15.7114C35.0272 14.3546 32.3392 14.5146 30.784 16.0698L16.064 30.7956C14.5152 32.3443 14.3552 35.0322 15.7184 36.7729L24.5888 48.0621C21.8368 52.8235 19.6992 57.9753 18.2464 63.4215L3.9744 65.1302C1.792 65.3862 0 67.4021 0 69.61V90.422C0 92.6235 1.7856 94.6266 3.9744 94.8954L18.2528 96.6105C19.712 102.038 21.8432 107.183 24.5952 111.944L15.7248 123.246C14.3744 124.981 14.528 127.662 16.0896 129.224L30.784 143.949C32.3392 145.498 35.0272 145.671 36.7552 144.314L48.0576 135.419C52.8192 138.17 57.9648 140.314 63.4048 141.761L65.12 156.032C65.3824 158.221 67.392 160 69.5936 160H90.4064C92.6144 160 94.624 158.221 94.88 156.032L96.5952 141.761C102.042 140.302 107.187 138.164 111.942 135.419L123.245 144.295C124.979 145.652 127.661 145.492 129.216 143.937L143.93 129.211C145.491 127.662 145.651 124.974 144.288 123.227L135.405 111.938C138.163 107.177 140.294 102.031 141.754 96.5977L156.026 94.8826C158.214 94.6202 160 92.6235 160 90.4092V69.5972C160.006 67.3829 158.227 65.3798 156.032 65.1174ZM80.0064 119.995C57.9136 119.995 40.0064 102.089 40.0064 79.9968C40.0064 57.9049 57.9136 39.9984 80.0064 39.9984C102.099 39.9984 120.006 57.9049 120.006 79.9968C120.006 102.089 102.106 119.995 80.0064 119.995Z" fill="#68CAAD" fill-opacity="0.7"/>
</g>
<defs>
<filter id="filter0_i" x="0" y="0" width="160" height="164" filterUnits="userSpaceOnUse" color-interpolation-filters="sRGB">
<feFlood flood-opacity="0" result="BackgroundImageFix"/>
<feBlend mode="normal" in="SourceGraphic" in2="BackgroundImageFix" result="shape"/>
<feColorMatrix in="SourceAlpha" type="matrix" values="0 0 0 0 0 0 0 0 0 0 0 0 0 0 0 0 0 0 127 0" result="hardAlpha"/>
<feOffset dy="7"/>
<feGaussianBlur stdDeviation="2"/>
<feComposite in2="hardAlpha" operator="arithmetic" k2="-1" k3="1"/>
<feColorMatrix type="matrix" values="0 0 0 0 0 0 0 0 0 0 0 0 0 0 0 0 0 0 0.25 0"/>
<feBlend mode="normal" in2="shape" result="effect1_innerShadow"/>
</filter>
<clipPath id="clip0">
<rect width="160" height="160" fill="white"/>
</clipPath>
</defs>
</svg>

