<svg width="90" height="90" viewBox="0 0 90 90" fill="none" xmlns="http://www.w3.org/2000/svg">
<path d="M78.0832 33.9541L77.6551 33.7983L75.9831 29.7242L76.1644 29.3056C81.2296 17.5793 80.8804 17.2295 80.0402 16.3793L73.2838 9.6512C73.0075 9.37146 72.5225 9.1747 72.1044 9.1747C71.7242 9.1747 70.5728 9.1747 60.594 13.7881L60.1939 13.9715L56.0769 12.2791L55.9116 11.8608C51.2191 0 50.7384 0 49.5707 0H40.029C38.8656 0 38.3358 0 33.9844 11.8814L33.8206 12.3139L29.7251 14.0182L29.3335 13.852C22.5792 10.9453 18.6355 9.47133 17.6075 9.47133C17.1903 9.47133 16.7036 9.66238 16.4261 9.94137L9.66335 16.6889C8.80544 17.5527 8.44962 17.9144 13.7801 29.3961L13.976 29.8219L12.3013 33.8915L11.8915 34.0532C0 38.7442 0 39.2015 0 40.4233V49.9677C0 51.1927 0 51.7015 11.9151 56.0603L12.341 56.2139L14.0159 60.2715L13.8361 60.6862C8.77088 72.418 9.09214 72.7355 9.95443 73.611L16.7006 80.3483C16.9835 80.6258 17.4729 80.8241 17.8903 80.8241C18.268 80.8241 19.4168 80.8241 29.4021 76.2129L29.802 76.0218L33.9216 77.7226L34.0818 78.1432C38.7773 90 39.2597 90 40.4281 90H49.9727C51.1711 90 51.6681 90 56.0229 78.1107L56.1852 77.6779L60.2873 75.985L60.6777 76.1475C67.4264 79.0624 71.3681 80.5334 72.3896 80.5334C72.8031 80.5334 73.2942 80.3483 73.5763 80.0631L80.35 73.3009C81.2021 72.4327 81.5572 72.0777 76.2172 60.6069L76.0186 60.1761L77.6904 56.1242L78.0895 55.9644C90 51.2489 90 50.7893 90 49.566V40.0273C89.9998 38.8025 89.9998 38.2967 78.0832 33.9541ZM44.9998 60.4792C36.4723 60.4792 29.535 53.5332 29.535 45.0017C29.535 36.47 36.4725 29.5332 44.9998 29.5332C53.5236 29.5332 60.4597 36.4715 60.4597 45.0017C60.4599 53.5317 53.5239 60.4792 44.9998 60.4792Z" fill="#68CAAD" fill-opacity="0.7"/>
</svg>
