<svg width="120" height="120" viewBox="0 0 120 120" fill="none" xmlns="http://www.w3.org/2000/svg">
<g clip-path="url(#clip0)" filter="url(#filter0_i)">
<path d="M117.024 48.838L106.315 47.5517C105.221 43.4671 103.618 39.608 101.554 36.0274L108.211 27.5653C109.229 26.2645 109.114 24.2534 107.938 23.0823L96.9024 12.0427C95.7408 10.8764 93.7248 10.7516 92.4192 11.7691L83.9424 18.4361C80.376 16.3721 76.5168 14.769 72.4416 13.6843L71.16 2.97588C70.9632 1.33915 69.4512 0 67.8 0H52.1904C50.5392 0 49.0272 1.33915 48.8352 2.97588L47.5488 13.6843C43.4688 14.7738 39.6048 16.3817 36.0384 18.4409L27.5664 11.7835C26.2704 10.766 24.2544 10.886 23.088 12.0523L12.048 23.0967C10.8864 24.2582 10.7664 26.2741 11.7888 27.5797L18.4416 36.0466C16.3776 39.6176 14.7744 43.4815 13.6848 47.5661L2.9808 48.8476C1.344 49.0396 0 50.5516 0 52.2075V67.8165C0 69.4676 1.3392 70.97 2.9808 71.1716L13.6896 72.4579C14.784 76.5281 16.3824 80.3872 18.4464 83.9582L11.7936 92.4347C10.7808 93.7355 10.896 95.7466 12.0672 96.9177L23.088 107.962C24.2544 109.124 26.2704 109.253 27.5664 108.236L36.0432 101.564C39.6144 103.628 43.4736 105.236 47.5536 106.321L48.84 117.024C49.0368 118.666 50.544 120 52.1952 120H67.8048C69.4608 120 70.968 118.666 71.16 117.024L72.4464 106.321C76.5312 105.226 80.3904 103.623 83.9568 101.564L92.4336 108.221C93.7344 109.239 95.7456 109.119 96.912 107.952L107.947 96.9081C109.118 95.7466 109.238 93.7306 108.216 92.4203L101.554 83.9534C103.622 80.3824 105.221 76.5233 106.315 72.4483L117.019 71.162C118.661 70.9652 120 69.4676 120 67.8069V52.1979C120.005 50.5372 118.67 49.0348 117.024 48.838ZM60.0048 89.9964C43.4352 89.9964 30.0048 76.5665 30.0048 59.9976C30.0048 43.4287 43.4352 29.9988 60.0048 29.9988C76.5744 29.9988 90.0048 43.4287 90.0048 59.9976C90.0048 76.5665 76.5792 89.9964 60.0048 89.9964Z" fill="#A4A3A3"/>
</g>
<defs>
<filter id="filter0_i" x="0" y="0" width="120" height="124" filterUnits="userSpaceOnUse" color-interpolation-filters="sRGB">
<feFlood flood-opacity="0" result="BackgroundImageFix"/>
<feBlend mode="normal" in="SourceGraphic" in2="BackgroundImageFix" result="shape"/>
<feColorMatrix in="SourceAlpha" type="matrix" values="0 0 0 0 0 0 0 0 0 0 0 0 0 0 0 0 0 0 127 0" result="hardAlpha"/>
<feOffset dy="7"/>
<feGaussianBlur stdDeviation="2"/>
<feComposite in2="hardAlpha" operator="arithmetic" k2="-1" k3="1"/>
<feColorMatrix type="matrix" values="0 0 0 0 0 0 0 0 0 0 0 0 0 0 0 0 0 0 0.25 0"/>
<feBlend mode="normal" in2="shape" result="effect1_innerShadow"/>
</filter>
<clipPath id="clip0">
<rect width="120" height="120" fill="white"/>
</clipPath>
</defs>
</svg>

