<svg width="75" height="75" viewBox="0 0 75 75" fill="none" xmlns="http://www.w3.org/2000/svg">
<g filter="url(#filter0_i)">
<path d="M65.0693 28.2951L64.7126 28.1653L63.3192 24.7702L63.4703 24.4214C67.6913 14.6494 67.4003 14.3579 66.7002 13.6494L61.0698 8.04266C60.8396 7.80955 60.4354 7.64558 60.087 7.64558C59.7702 7.64558 58.8106 7.64558 50.495 11.4901L50.1616 11.6429L46.7307 10.2326L46.593 9.88398C42.6825 0 42.282 0 41.3089 0H33.3575C32.388 0 31.9465 0 28.3204 9.90116L28.1839 10.2616L24.7709 11.6818L24.4446 11.5433C18.816 9.12108 15.5296 7.89278 14.6729 7.89278C14.3253 7.89278 13.9196 8.05198 13.6884 8.28447L8.05279 13.9074C7.33787 14.6272 7.04135 14.9287 11.4834 24.4967L11.6467 24.8516L10.2511 28.2429L9.90957 28.3777C0 32.2868 0 32.6679 0 33.6861V41.6398C0 42.6606 0 43.0846 9.92924 46.7169L10.2842 46.8449L11.6799 50.2263L11.5301 50.5718C7.30907 60.3483 7.57679 60.6129 8.29536 61.3425L13.9172 66.9569C14.1529 67.1882 14.5607 67.3534 14.9086 67.3534C15.2233 67.3534 16.1806 67.3534 24.5017 63.5107L24.835 63.3515L28.268 64.7688L28.4015 65.1193C32.3144 75 32.7164 75 33.6901 75H41.6439C42.6426 75 43.0567 75 46.6857 65.0922L46.821 64.7316L50.2395 63.3209L50.5648 63.4563C56.1886 65.8853 59.4734 67.1112 60.3247 67.1112C60.6693 67.1112 61.0785 66.9569 61.3136 66.7193L66.9584 61.0841C67.6684 60.3606 67.9643 60.0647 63.5143 50.5058L63.3488 50.1468L64.742 46.7701L65.0746 46.637C75 42.7074 75 42.3244 75 41.305V33.3561C74.9998 32.3355 74.9998 31.9139 65.0693 28.2951ZM37.4998 50.3994C30.3935 50.3994 24.6125 44.611 24.6125 37.5014C24.6125 30.3917 30.3937 24.611 37.4998 24.611C44.603 24.611 50.3831 30.3929 50.3831 37.5014C50.3833 44.6098 44.6032 50.3994 37.4998 50.3994Z" fill="#3E9279"/>
</g>
<defs>
<filter id="filter0_i" x="0" y="0" width="75" height="79" filterUnits="userSpaceOnUse" color-interpolation-filters="sRGB">
<feFlood flood-opacity="0" result="BackgroundImageFix"/>
<feBlend mode="normal" in="SourceGraphic" in2="BackgroundImageFix" result="shape"/>
<feColorMatrix in="SourceAlpha" type="matrix" values="0 0 0 0 0 0 0 0 0 0 0 0 0 0 0 0 0 0 127 0" result="hardAlpha"/>
<feOffset dy="7"/>
<feGaussianBlur stdDeviation="2"/>
<feComposite in2="hardAlpha" operator="arithmetic" k2="-1" k3="1"/>
<feColorMatrix type="matrix" values="0 0 0 0 0 0 0 0 0 0 0 0 0 0 0 0 0 0 0.25 0"/>
<feBlend mode="normal" in2="shape" result="effect1_innerShadow"/>
</filter>
</defs>
</svg>

