<svg width="50" height="50" viewBox="0 0 40 40" fill="none" xmlns="http://www.w3.org/2000/svg">
<g filter="url(#filter0_i)">
<path d="M34.7036 15.0907L34.5134 15.0215L33.7703 13.2108L33.8508 13.0247C36.102 7.813 35.9468 7.65754 35.5734 7.27969L32.5706 4.28942C32.4478 4.16509 32.2322 4.07764 32.0464 4.07764C31.8774 4.07764 31.3657 4.07764 26.9307 6.12806L26.7528 6.20955L24.9231 5.4574L24.8496 5.27146C22.764 0 22.5504 0 22.0314 0H17.7907C17.2736 0 17.0381 0 15.1042 5.28062L15.0314 5.47285L13.2111 6.2303L13.0371 6.15644C10.0352 4.86458 8.28245 4.20948 7.82555 4.20948C7.64015 4.20948 7.42381 4.29439 7.3005 4.41839L4.29482 7.41727C3.91353 7.80119 3.75539 7.96195 6.12449 13.0649L6.21157 13.2542L5.46726 15.0629L5.2851 15.1348C0 17.2196 0 17.4229 0 17.9659V22.2079C0 22.7523 0 22.9785 5.2956 24.9157L5.48489 24.9839L6.22931 26.7874L6.14937 26.9716C3.89817 32.1858 4.04095 32.3269 4.42419 32.716L7.42251 35.7104C7.5482 35.8337 7.76573 35.9218 7.95124 35.9218C8.11911 35.9218 8.62967 35.9218 13.0676 33.8724L13.2453 33.7875L15.0763 34.5434L15.1475 34.7303C17.2344 40 17.4487 40 17.9681 40H22.2101C22.7427 40 22.9636 40 24.8991 34.7158L24.9712 34.5235L26.7944 33.7711L26.9679 33.8433C29.9673 35.1388 31.7192 35.7926 32.1732 35.7926C32.3569 35.7926 32.5752 35.7104 32.7006 35.5836L35.7111 32.5782C36.0898 32.1923 36.2476 32.0345 33.8743 26.9364L33.786 26.745L34.5291 24.9441L34.7065 24.8731C40 22.7773 40 22.573 40 22.0293V17.7899C39.9999 17.2456 39.9999 17.0208 34.7036 15.0907ZM19.9999 26.8797C16.2099 26.8797 13.1267 23.7926 13.1267 20.0008C13.1267 16.2089 16.21 13.1259 19.9999 13.1259C23.7883 13.1259 26.871 16.2095 26.871 20.0008C26.8711 23.7919 23.7884 26.8797 19.9999 26.8797Z" fill="#3E9279"/>
</g>
<defs>
<filter id="filter0_i" x="0" y="0" width="40" height="44" filterUnits="userSpaceOnUse" color-interpolation-filters="sRGB">
<feFlood flood-opacity="0" result="BackgroundImageFix"/>
<feBlend mode="normal" in="SourceGraphic" in2="BackgroundImageFix" result="shape"/>
<feColorMatrix in="SourceAlpha" type="matrix" values="0 0 0 0 0 0 0 0 0 0 0 0 0 0 0 0 0 0 127 0" result="hardAlpha"/>
<feOffset dy="7"/>
<feGaussianBlur stdDeviation="2"/>
<feComposite in2="hardAlpha" operator="arithmetic" k2="-1" k3="1"/>
<feColorMatrix type="matrix" values="0 0 0 0 0 0 0 0 0 0 0 0 0 0 0 0 0 0 0.25 0"/>
<feBlend mode="normal" in2="shape" result="effect1_innerShadow"/>
</filter>
</defs>
</svg>

