<svg width="60" height="58" viewBox="0 0 60 58" fill="none" xmlns="http://www.w3.org/2000/svg">
<path d="M33.268 47.0825L23.1102 50.7043L22.7251 52.0503C22.1783 53.9662 20.1006 55.5332 18.1086 55.5332V56.4387H39.175L33.268 47.0825Z" fill="#ADACA7"/>
<path d="M37.2749 52.0504L35.8552 47.0825L30 43.4608L24.1449 47.0825L23.1103 50.7043H33.268L33.6532 52.0504C34.2 53.9663 36.2777 55.5333 38.2697 55.5333L40.0805 56.4387L41.8914 55.5333C39.8994 55.5333 37.8218 53.9663 37.2749 52.0504Z" fill="#8F8F8B"/>
<path d="M52.7566 47.0825H56.3783C58.3702 47.0825 60 45.4527 60 43.4607V36.2173L52.7566 28.9738V47.0825Z" fill="#ADACA7"/>
<path d="M0 43.4608C0 45.4527 1.62978 47.0825 3.62173 47.0825H52.7565C54.7485 47.0825 56.3783 45.4527 56.3783 43.4608V21.7304L0 36.2173V43.4608Z" fill="#CBC9C2"/>
<path d="M56.3783 0H52.7566L56.3783 36.2173H60V3.62173C60 1.62978 58.3702 0 56.3783 0Z" fill="#404242"/>
<path d="M56.3783 3.62173C56.3783 1.62978 54.7485 0 52.7565 0H3.62173C1.62978 0 0 1.62978 0 3.62173V36.2173H56.3783V32.5956L30 18.1071L56.3783 3.62173Z" fill="#565959"/>
<path d="M56.3783 3.62113L52.7573 3.61859C52.7573 3.61919 30 18.1071 30 18.1071C30 18.1071 52.7568 32.5953 52.7565 32.5956L56.3782 32.5931C56.3783 32.5931 56.3779 3.62161 56.3783 3.62113Z" fill="#68CAAD" fill-opacity="0.7"/>
<path d="M52.7565 3.62113L3.63233 3.61847C3.62931 3.61992 3.62677 32.595 3.6217 32.5956C3.6217 32.5956 52.7541 32.5932 52.7553 32.5932C52.7559 32.5932 52.7514 3.62161 52.7565 3.62113Z" fill="#68CAAD" fill-opacity="0.7"/>
<path d="M30 43.4608C31.0001 43.4608 31.8109 42.65 31.8109 41.6499C31.8109 40.6498 31.0001 39.8391 30 39.8391C28.9999 39.8391 28.1891 40.6498 28.1891 41.6499C28.1891 42.65 28.9999 43.4608 30 43.4608Z" fill="white"/>
<path d="M48.7123 57.3441H11.2877C10.7877 57.3441 10.3823 56.9388 10.3823 56.4386C10.3823 55.9385 10.7877 55.5332 11.2877 55.5332H48.7123C49.2123 55.5332 49.6177 55.9385 49.6177 56.4386C49.6177 56.9388 49.2123 57.3441 48.7123 57.3441Z" fill="#8F8F8B"/>
</svg>
