<svg width="62" height="54" viewBox="0 0 62 54" fill="none" xmlns="http://www.w3.org/2000/svg">
<g filter="url(#filter0_d)">
<path d="M57.5209 22.9569C57.5323 22.9581 57.5452 22.9594 57.5566 22.9594C57.6458 22.9594 57.7272 22.8945 57.7439 22.8027C57.7628 22.6993 57.6941 22.5999 57.5909 22.5796C54.9815 22.0989 53.0725 21.5674 46.6314 21.621C47.0328 20.1358 47.2496 18.3793 47.2928 16.299C47.2827 10.6584 44.5828 8.66344 44.0641 7.72668C44.8289 3.45633 43.9366 1.51234 43.5223 0.845737C41.9926 0.301388 38.2005 2.24548 36.129 3.61573C32.751 2.62784 25.6125 2.72338 22.9356 3.87066C17.9961 0.333296 15.383 0.874951 15.383 0.874951C15.383 0.874951 13.6941 3.90253 14.937 8.33206C13.3117 10.4036 12.1007 11.8694 12.1007 15.7547C12.1007 17.9434 12.3581 19.9026 12.9394 21.6133C10.3542 21.607 4.93591 21.9548 2.39795 22.5821C2.29601 22.6076 2.23339 22.7121 2.25766 22.8141C2.27945 22.9008 2.35838 22.9595 2.44384 22.9595C2.45908 22.9595 2.47435 22.9582 2.48959 22.9544C5.05036 22.3209 10.6498 21.9766 13.0769 21.9971C13.2158 22.3655 13.3714 22.7225 13.5434 23.0679C7.30378 23.2336 5.62141 24.1245 3.00194 24.7785C2.81206 24.827 2.6259 24.8728 2.44494 24.9175C2.343 24.9431 2.27937 25.0475 2.30465 25.1495C2.32644 25.2362 2.40413 25.2948 2.49083 25.2947C2.50607 25.2947 2.52134 25.2935 2.53658 25.2896C2.71765 25.2438 2.90373 25.1979 3.09496 25.1496C5.72222 24.4932 7.4272 23.597 13.7421 23.4453C15.5982 26.8157 19.1774 28.9123 25.2145 29.4924C24.3528 30.1463 23.3177 31.388 23.175 32.8233C22.0916 33.5245 19.9131 33.7551 18.2189 33.221C15.8454 32.4716 14.9366 27.7718 11.3826 28.4409C10.6127 28.5863 10.7656 29.0934 11.4311 29.5243C12.5146 30.2254 13.5345 31.1023 14.3209 32.9698C14.9251 34.404 16.1947 36.966 20.21 36.966C21.8035 36.966 22.9201 36.7749 22.9201 36.7749C22.9201 36.7749 22.9507 40.4344 22.9507 41.8571C22.9507 43.4976 20.7364 43.9604 20.7364 44.7494C20.7364 45.0617 21.4694 45.091 22.0584 45.091C23.2222 45.091 25.6442 44.1196 25.6442 42.4142C25.6442 41.0592 25.6658 36.5033 25.6658 35.7066C25.6658 33.9641 26.6001 33.4122 26.6001 33.4122C26.6001 33.4122 26.7161 42.7136 26.377 43.9604C25.9793 45.4263 25.2616 45.2186 25.2616 45.8725C25.2616 46.8451 28.1771 46.1108 29.1433 43.9756C29.8903 42.3135 29.564 33.1889 29.564 33.1889L30.3606 33.1725C30.3606 33.1725 30.4053 37.3496 30.3786 39.259C30.3504 41.2361 30.2167 43.7372 31.3906 44.9164C32.1618 45.6914 34.6629 47.0516 34.6629 45.8087C34.6629 45.0859 33.2926 44.4918 33.2926 42.5364C33.2926 40.4089 33.2926 34.1348 33.2926 33.5396C34.3862 33.5396 34.2218 36.498 34.2218 36.498L34.3021 41.9946C34.3021 41.9946 34.0613 43.9973 36.468 44.8361C37.317 45.1331 39.1346 45.2132 39.22 44.7148C39.3055 44.2152 37.0313 43.4719 37.0109 41.9207C36.9983 40.9748 37.0531 40.4229 37.0531 36.312C37.0531 32.201 36.5011 30.6816 34.5776 29.4706C40.5138 28.86 44.1875 27.3915 45.9786 23.4578C48.036 23.5253 52.3441 23.7357 57.3511 25.2666C57.3689 25.2729 57.3882 25.2756 57.4074 25.2756C57.489 25.2756 57.5642 25.222 57.5897 25.1404C57.6202 25.0384 57.5641 24.9313 57.4621 24.9007C52.5239 23.3903 48.3471 23.1543 46.1419 23.0805C46.2808 22.7389 46.4084 22.3807 46.5217 22.0047C53 21.9447 54.9141 22.4751 57.5209 22.9569ZM12.5465 29.2104C12.309 29.2104 12.1163 29.0821 12.1163 28.9236C12.1163 28.7653 12.309 28.637 12.5465 28.637C12.784 28.637 12.9767 28.7654 12.9767 28.9236C12.9767 29.082 12.7841 29.2104 12.5465 29.2104ZM13.885 29.9381C13.6475 29.9381 13.4548 29.8096 13.4548 29.6514C13.4548 29.4929 13.6475 29.3646 13.885 29.3646C14.1225 29.3646 14.3152 29.4929 14.3152 29.6514C14.3152 29.8098 14.1226 29.9381 13.885 29.9381ZM14.2726 30.6233C14.2726 30.4649 14.4653 30.3365 14.7028 30.3365C14.9404 30.3365 15.1331 30.465 15.1331 30.6233C15.1331 30.7818 14.9404 30.9101 14.7028 30.9101C14.4653 30.9101 14.2726 30.7818 14.2726 30.6233ZM15.42 32.0096C15.1822 32.0096 14.9898 31.8812 14.9898 31.7227C14.9898 31.5643 15.1823 31.4359 15.42 31.4359C15.6575 31.4359 15.8502 31.5644 15.8502 31.7227C15.8502 31.8812 15.6575 32.0096 15.42 32.0096ZM16.2378 33.0452C16.0003 33.0452 15.8076 32.9171 15.8076 32.7586C15.8076 32.6002 16.0003 32.4718 16.2378 32.4718C16.4754 32.4718 16.6681 32.6003 16.6681 32.7586C16.6681 32.917 16.4755 33.0452 16.2378 33.0452ZM17.3426 33.927C17.1051 33.927 16.9124 33.7985 16.9124 33.6402C16.9124 33.4817 17.1051 33.3533 17.3426 33.3533C17.5801 33.3533 17.7728 33.4817 17.7728 33.6402C17.7728 33.7985 17.5801 33.927 17.3426 33.927ZM18.8882 34.5005C18.6507 34.5005 18.458 34.3723 18.458 34.2138C18.458 34.0554 18.6507 33.927 18.8882 33.927C19.1257 33.927 19.3184 34.0555 19.3184 34.2138C19.3184 34.3723 19.1258 34.5005 18.8882 34.5005ZM20.4391 34.5005C20.2015 34.5005 20.0088 34.3723 20.0088 34.2138C20.0088 34.0554 20.2015 33.927 20.4391 33.927C20.6766 33.927 20.8693 34.0555 20.8693 34.2138C20.8693 34.3723 20.6766 34.5005 20.4391 34.5005ZM21.9953 34.2562C21.7578 34.2562 21.5651 34.1277 21.5651 33.9695C21.5651 33.8112 21.7578 33.6827 21.9953 33.6827C22.233 33.6827 22.4255 33.8112 22.4255 33.9695C22.4255 34.1277 22.233 34.2562 21.9953 34.2562ZM34.1804 28.1507C32.8973 28.1933 31.5666 28.2149 30.2261 28.2149C28.8726 28.2149 27.566 28.193 26.343 28.1493C19.8211 27.9207 16.2292 25.168 16.2292 20.3992C16.2292 19.904 16.3339 18.1631 17.6833 16.5454C18.9947 14.9732 21.0041 14.1419 23.4944 14.1419C23.6641 14.1419 23.9678 14.1605 24.5841 14.1986C25.9045 14.2808 28.1149 14.4182 30.3033 14.4182C32.2851 14.4182 34.2894 14.2719 35.3664 14.1931C35.8704 14.1561 36.0727 14.1419 36.203 14.1419C41.5008 14.1419 43.3882 17.5267 43.3882 20.6943C43.3881 23.9581 41.7906 27.9013 34.1804 28.1507Z" fill="#494949"/>
<path d="M11.2507 32.2752C12.2772 32.2752 11.2682 30.6831 11.2507 29.9382C11.246 30.6631 10.2242 32.2752 11.2507 32.2752Z" fill="#494949"/>
<path d="M31.2422 25.4237C31.1367 25.4237 31.0511 25.5093 31.0511 25.6148C31.0511 26.0361 30.5559 26.5073 29.8933 26.5073C29.7977 26.5073 29.7058 26.4966 29.6178 26.4776C29.3979 26.4303 29.2036 26.3308 29.0445 26.2139C29.0127 26.1906 28.9823 26.1666 28.9534 26.1421C28.8667 26.0685 28.7935 25.9911 28.736 25.9175C28.6398 25.7946 28.5869 25.6823 28.5869 25.6148C28.5869 25.5093 28.5013 25.4237 28.3956 25.4237C28.2901 25.4237 28.2045 25.5093 28.2045 25.6148C28.2045 25.6694 28.2157 25.7303 28.237 25.7949C28.269 25.8919 28.3244 25.9977 28.3996 26.1039C28.475 26.21 28.5705 26.3168 28.6831 26.4159C28.7956 26.5148 28.9253 26.6062 29.0693 26.6819C29.2493 26.7762 29.4513 26.8459 29.6697 26.8748C29.7425 26.8844 29.8172 26.8895 29.8934 26.8895C30.2905 26.8895 30.635 26.761 30.8969 26.566C30.9342 26.5381 30.97 26.5089 31.0039 26.4785C31.0718 26.4177 31.1327 26.352 31.1857 26.2832C31.3181 26.1113 31.402 25.9188 31.4262 25.7287C31.431 25.6906 31.4336 25.6527 31.4336 25.615C31.4335 25.5093 31.3479 25.4237 31.2422 25.4237Z" fill="#494949"/>
<path d="M29.3258 24.4003C29.3732 24.4703 29.4337 24.5308 29.5037 24.5782C29.53 24.5959 29.5576 24.6119 29.5864 24.6258C29.644 24.6534 29.7063 24.6731 29.7718 24.6831C29.8044 24.6881 29.8379 24.6907 29.8721 24.6907C30.0083 24.6907 30.1352 24.6493 30.2404 24.5782C30.2842 24.5487 30.3242 24.514 30.3596 24.4749C30.4091 24.4206 30.4453 24.3557 30.4744 24.2871C30.5081 24.2079 30.5308 24.1233 30.5308 24.0319C30.5308 23.6682 30.2358 23.3733 29.8721 23.3733C29.6902 23.3733 29.5255 23.447 29.4063 23.5662C29.4011 23.5714 29.3972 23.5779 29.3922 23.5832C29.3584 23.6194 29.3296 23.6598 29.3045 23.7031C29.2695 23.7635 29.2412 23.8285 29.2267 23.8991C29.2181 23.942 29.2134 23.9864 29.2134 24.0319C29.2134 24.0773 29.2182 24.1217 29.2267 24.1647C29.2444 24.2505 29.2785 24.3302 29.3258 24.4003Z" fill="#494949"/>
<path d="M24.4489 17.4934C24.3141 17.3276 24.1684 17.1806 24.0137 17.0554C23.859 16.9301 23.6952 16.8266 23.5243 16.7475C23.3532 16.6682 23.1751 16.6132 22.9915 16.5855C22.8997 16.5717 22.8066 16.5645 22.7124 16.5645C21.2046 16.5645 19.9824 18.3859 19.9824 20.633C19.9824 22.8799 21.2046 24.4464 22.7124 24.4464C22.8066 24.4464 22.8997 24.4403 22.9915 24.4284C23.1751 24.4042 23.3532 24.3565 23.5243 24.2871C23.6952 24.2176 23.859 24.1262 24.0137 24.0145C24.1684 23.9029 24.3141 23.7712 24.4489 23.6211C24.5837 23.471 24.7076 23.3024 24.8189 23.1172C25.2085 22.4688 25.4423 21.616 25.4423 20.633C25.4423 19.6499 25.2084 18.7484 24.8189 18.045C24.7076 17.844 24.5837 17.6593 24.4489 17.4934Z" fill="#494949"/>
<path d="M37.4672 16.5643C35.9594 16.5643 34.7372 18.3858 34.7372 20.6328C34.7372 22.8798 35.9594 24.4463 37.4672 24.4463C38.975 24.4463 40.1971 22.8798 40.1971 20.6328C40.1971 18.3858 38.975 16.5643 37.4672 16.5643Z" fill="#494949"/>
</g>
<defs>
<filter id="filter0_d" x="0.252441" y="0.751953" width="63.4946" height="53.5591" filterUnits="userSpaceOnUse" color-interpolation-filters="sRGB">
<feFlood flood-opacity="0" result="BackgroundImageFix"/>
<feColorMatrix in="SourceAlpha" type="matrix" values="0 0 0 0 0 0 0 0 0 0 0 0 0 0 0 0 0 0 127 0"/>
<feOffset dx="2" dy="4"/>
<feGaussianBlur stdDeviation="2"/>
<feColorMatrix type="matrix" values="0 0 0 0 0 0 0 0 0 0 0 0 0 0 0 0 0 0 0.25 0"/>
<feBlend mode="normal" in2="BackgroundImageFix" result="effect1_dropShadow"/>
<feBlend mode="normal" in="SourceGraphic" in2="effect1_dropShadow" result="shape"/>
</filter>
</defs>
</svg>
