<svg width="50" height="51" viewBox="0 0 50 51" fill="none" xmlns="http://www.w3.org/2000/svg">
<g filter="url(#filter0_d)">
<path d="M23.4286 18.3594H43.6574C43.8806 19.6057 43.9922 20.7961 43.9922 21.9308C43.9922 25.9673 43.1458 29.5712 41.4531 32.7427C39.7604 35.9142 37.3469 38.3929 34.2126 40.1786C31.0783 41.9643 27.4836 42.8571 23.4286 42.8571C20.5082 42.8571 17.7273 42.2945 15.0859 41.1691C12.4446 40.0437 10.1659 38.5231 8.25 36.6071C6.33408 34.6912 4.81343 32.4126 3.68806 29.7712C2.56269 27.1298 2 24.349 2 21.4286C2 18.5082 2.56269 15.7273 3.68806 13.0859C4.81343 10.4446 6.33408 8.16592 8.25 6.25C10.1659 4.33408 12.4446 2.81343 15.0859 1.68806C17.7273 0.562686 20.5082 0 23.4286 0C29.0089 0 33.7987 1.86942 37.798 5.60826L31.9665 11.2165C29.6786 9.00298 26.8326 7.89621 23.4286 7.89621C21.029 7.89621 18.8108 8.50074 16.774 9.70982C14.7372 10.9189 13.1235 12.5605 11.933 14.6345C10.7426 16.7085 10.1473 18.9732 10.1473 21.4286C10.1473 23.8839 10.7426 26.1486 11.933 28.2227C13.1235 30.2967 14.7372 31.9382 16.774 33.1473C18.8108 34.3564 21.029 34.9609 23.4286 34.9609C25.0469 34.9609 26.535 34.7377 27.8929 34.2913C29.2507 33.8449 30.3668 33.2868 31.2411 32.6172C32.1153 31.9475 32.878 31.1849 33.529 30.3292C34.1801 29.4736 34.659 28.6644 34.966 27.9018C35.2729 27.1391 35.4821 26.4137 35.5937 25.7254H23.4286V18.3594Z" fill="#494949"/>
</g>
<defs>
<filter id="filter0_d" x="0" y="0" width="49.9922" height="50.8571" filterUnits="userSpaceOnUse" color-interpolation-filters="sRGB">
<feFlood flood-opacity="0" result="BackgroundImageFix"/>
<feColorMatrix in="SourceAlpha" type="matrix" values="0 0 0 0 0 0 0 0 0 0 0 0 0 0 0 0 0 0 127 0"/>
<feOffset dx="2" dy="4"/>
<feGaussianBlur stdDeviation="2"/>
<feColorMatrix type="matrix" values="0 0 0 0 0 0 0 0 0 0 0 0 0 0 0 0 0 0 0.25 0"/>
<feBlend mode="normal" in2="BackgroundImageFix" result="effect1_dropShadow"/>
<feBlend mode="normal" in="SourceGraphic" in2="effect1_dropShadow" result="shape"/>
</filter>
</defs>
</svg>
