<svg width="58" height="58" viewBox="0 0 58 58" fill="none" xmlns="http://www.w3.org/2000/svg">
<g filter="url(#filter0_d)">
<path fill-rule="evenodd" clip-rule="evenodd" d="M27 50C40.8071 50 52 38.8071 52 25C52 11.1929 40.8071 0 27 0C13.1929 0 2 11.1929 2 25C2 38.8071 13.1929 50 27 50ZM27 47C39.1503 47 49 37.1503 49 25C49 12.8497 39.1503 3 27 3C14.8497 3 5 12.8497 5 25C5 37.1503 14.8497 47 27 47ZM16 20.118V34.6582H20.7101V20.118H16ZM18.6647 13C17.0534 13 16 14.0859 16 15.5115C16 16.9076 17.0223 18.0248 18.6036 18.0248H18.6337C20.276 18.0248 21.2988 16.9076 21.2988 15.5115C21.2683 14.0859 20.276 13 18.6647 13ZM32.5769 20.118C30.0762 20.118 28.9566 21.5293 28.3314 22.5194V20.4599H23.6208C23.6828 21.8242 23.6208 35 23.6208 35H28.3314V26.8796C28.3314 26.445 28.362 26.0115 28.4865 25.7004C28.8269 24.8323 29.602 23.9334 30.9033 23.9334C32.6083 23.9334 33.2899 25.2667 33.2899 27.2206V34.9996H37.9998L38 26.6627C38 22.1966 35.6764 20.118 32.5769 20.118Z" fill="#494949"/>
</g>
<defs>
<filter id="filter0_d" x="0" y="0" width="58" height="58" filterUnits="userSpaceOnUse" color-interpolation-filters="sRGB">
<feFlood flood-opacity="0" result="BackgroundImageFix"/>
<feColorMatrix in="SourceAlpha" type="matrix" values="0 0 0 0 0 0 0 0 0 0 0 0 0 0 0 0 0 0 127 0"/>
<feOffset dx="2" dy="4"/>
<feGaussianBlur stdDeviation="2"/>
<feColorMatrix type="matrix" values="0 0 0 0 0 0 0 0 0 0 0 0 0 0 0 0 0 0 0.25 0"/>
<feBlend mode="normal" in2="BackgroundImageFix" result="effect1_dropShadow"/>
<feBlend mode="normal" in="SourceGraphic" in2="effect1_dropShadow" result="shape"/>
</filter>
</defs>
</svg>
