<svg width="65" height="65" viewBox="0 0 50 50" fill="none" xmlns="http://www.w3.org/2000/svg">
<path d="M18.75 18.75C18.75 15.2083 21.4583 12.5 25 12.5C28.5417 12.5 31.25 15.2083 31.25 18.75C31.25 22.2917 28.5417 25 25 25C21.4583 25 18.75 22.2917 18.75 18.75ZM25 29.1667C15.4167 29.1667 12.5 36.0417 12.5 36.0417V39.5833H37.5V36.0417C37.5 36.0417 34.5833 29.1667 25 29.1667Z" fill="#68caad"/>
<path d="M38.5417 22.9167C41.4182 22.9167 43.75 20.5848 43.75 17.7083C43.75 14.8319 41.4182 12.5 38.5417 12.5C35.6652 12.5 33.3334 14.8319 33.3334 17.7083C33.3334 20.5848 35.6652 22.9167 38.5417 22.9167Z" fill="black"/>
<path d="M38.5417 27.0833C36.0417 27.0833 34.1667 27.7083 32.7084 28.75C37.5 31.0416 39.375 35 39.375 35.4166V35.625H47.9167V32.9166C47.9167 32.7083 45.625 27.0833 38.5417 27.0833Z" fill="black"/>
<path d="M38.5417 22.9167C41.4182 22.9167 43.75 20.5848 43.75 17.7083C43.75 14.8319 41.4182 12.5 38.5417 12.5C35.6652 12.5 33.3334 14.8319 33.3334 17.7083C33.3334 20.5848 35.6652 22.9167 38.5417 22.9167Z" fill="#A4A3A3"/>
<path d="M38.5417 27.0833C36.0417 27.0833 34.1667 27.7083 32.7084 28.75C37.5 31.0416 39.375 35 39.375 35.4166V35.625H47.9167V32.9166C47.9167 32.7083 45.625 27.0833 38.5417 27.0833Z" fill="#A4A3A3"/>
<path d="M11.4583 22.9167C14.3348 22.9167 16.6667 20.5848 16.6667 17.7083C16.6667 14.8319 14.3348 12.5 11.4583 12.5C8.58185 12.5 6.25 14.8319 6.25 17.7083C6.25 20.5848 8.58185 22.9167 11.4583 22.9167Z" fill="#A4A3A3"/>
<path d="M11.4583 27.0833C13.9583 27.0833 15.8333 27.7083 17.2916 28.75C12.5 31.0416 10.625 35 10.625 35.4166V35.625H2.08331V32.9166C2.08331 32.7083 4.37498 27.0833 11.4583 27.0833Z" fill="#A4A3A3"/>
</svg>
