<svg width="50" height="50" viewBox="0 0 60 60" fill="none" xmlns="http://www.w3.org/2000/svg">
<path d="M57.9716 59.347C58.3508 58.9665 58.6587 58.6586 58.6587 58.6586L59.3459 57.9701C59.7252 57.5883 59.0767 55.8282 57.8964 54.0383L54.8692 49.4425C53.689 47.6526 51.8239 46.009 50.7019 45.7735C49.5799 45.5366 48.67 45.3451 48.67 45.3451L39.5472 36.2261L36.2263 39.5496L45.3414 48.6698L45.7724 50.7018C46.0093 51.8225 47.6542 53.6901 49.4441 54.8691L54.0424 57.9001C55.8322 59.0791 57.5923 59.7276 57.9716 59.347Z" fill="#A4A3A3"/>
<path d="M2.02967 11.8136L15.5852 25.3692L17.278 27.0581C17.3168 27.0995 17.3544 27.1215 17.3918 27.1603L19.6307 24.92L3.64094 8.93008C3.25133 8.54446 3.25133 7.91157 3.64094 7.52977C4.02656 7.1389 4.65037 7.1389 5.04124 7.52977L21.0259 23.5235L23.5199 21.0245L7.52995 5.03708C7.13908 4.65019 7.13908 4.02367 7.52995 3.63678C7.91557 3.25116 8.54336 3.25116 8.92516 3.63678L24.9227 19.6343L27.1578 17.3915C27.1242 17.3526 27.0995 17.3112 27.0647 17.2736L25.2877 15.4941L11.8189 2.02917C9.1167 -0.6783 4.73061 -0.67448 2.02951 2.02917C-0.67653 4.73043 -0.67653 9.11127 2.02967 11.8136Z" fill="#A4A3A3"/>
<path d="M59.685 13.0004C59.522 10.8625 57.6324 10.4469 56.117 11.9625L50.8211 17.2596C49.5917 18.4982 47.5766 18.4943 46.3432 17.2596L42.9122 13.8326C41.6699 12.5838 41.6737 10.5751 42.9084 9.33526L48.3842 3.86475C49.901 2.34917 49.5165 0.391133 47.3876 0.137502C43.2695 -0.354317 38.9778 0.977367 35.8161 4.13654C33.4077 6.54898 32.0629 9.6252 31.7782 12.7753C31.6644 14.0489 31.724 15.3339 31.9529 16.5971L2.56413 45.9883C1.01241 47.5413 0.15567 49.603 0.15567 51.7992C0.15567 53.9903 1.01241 56.0493 2.56031 57.5998C5.76215 60.8003 10.97 60.8003 14.177 57.5998C14.177 57.5998 35.3023 36.4772 43.857 27.9121C45.2018 28.0959 46.5632 28.083 47.9027 27.8707C50.7318 27.4281 53.4509 26.1313 55.6343 23.952C58.638 20.948 59.9853 16.9243 59.685 13.0004ZM11.1446 55.0747C9.46473 56.7456 6.76251 56.7456 5.08771 55.0709C3.42072 53.4079 3.4169 50.6926 5.09153 49.0256C6.76235 47.3586 9.46457 47.3626 11.1394 49.0256C12.8065 50.6926 12.8065 53.4079 11.1446 55.0747Z" fill="#A4A3A3"/>
</svg>
